<?xml version="1.0" encoding="UTF-8" standalone="no"?>
<!-- Created with Inkscape (http://www.inkscape.org/) -->

<svg
   xmlns:dc="http://purl.org/dc/elements/1.1/"
   xmlns:cc="http://creativecommons.org/ns#"
   xmlns:rdf="http://www.w3.org/1999/02/22-rdf-syntax-ns#"
   xmlns:svg="http://www.w3.org/2000/svg"
   xmlns="http://www.w3.org/2000/svg"
   xmlns:xlink="http://www.w3.org/1999/xlink"
   xmlns:sodipodi="http://sodipodi.sourceforge.net/DTD/sodipodi-0.dtd"
   xmlns:inkscape="http://www.inkscape.org/namespaces/inkscape"
   width="201.28593mm"
   height="194.40613mm"
   viewBox="0 0 713.21788 688.84061"
   id="svg2"
   version="1.1"
   inkscape:version="0.91 r13725"
   sodipodi:docname="echo-spot.svg">
  <defs
     id="defs4">
    <linearGradient
       id="linearGradient4275"
       inkscape:collect="always">
      <stop
         id="stop4277"
         offset="0"
         style="stop-color:#343434;stop-opacity:1" />
      <stop
         id="stop4279"
         offset="1"
         style="stop-color:#585858;stop-opacity:1" />
    </linearGradient>
    <linearGradient
       inkscape:collect="always"
       id="linearGradient4236">
      <stop
         style="stop-color:#000000;stop-opacity:1"
         offset="0"
         id="stop4238" />
      <stop
         style="stop-color:#f0f0f0;stop-opacity:1"
         offset="1"
         id="stop4240" />
    </linearGradient>
    <radialGradient
       inkscape:collect="always"
       xlink:href="#linearGradient4236"
       id="radialGradient4234"
       cx="594.68317"
       cy="253.7701"
       fx="594.68317"
       fy="253.7701"
       r="355.43674"
       gradientTransform="matrix(-0.00393776,1.0329346,-1.1230754,-0.00427007,661.63038,-77.965903)"
       gradientUnits="userSpaceOnUse" />
    <linearGradient
       inkscape:collect="always"
       xlink:href="#linearGradient4236"
       id="linearGradient4248"
       x1="354.39236"
       y1="858.80841"
       x2="354.18958"
       y2="894.52271"
       gradientUnits="userSpaceOnUse" />
    <linearGradient
       inkscape:collect="always"
       xlink:href="#linearGradient4275"
       id="linearGradient4273"
       x1="360.93695"
       y1="235.51314"
       x2="422.76132"
       y2="816.35083"
       gradientUnits="userSpaceOnUse" />
  </defs>
  <sodipodi:namedview
     id="base"
     pagecolor="#ffffff"
     bordercolor="#666666"
     borderopacity="1.0"
     inkscape:pageopacity="0.0"
     inkscape:pageshadow="2"
     inkscape:zoom="0.98994949"
     inkscape:cx="431.4059"
     inkscape:cy="294.41088"
     inkscape:document-units="px"
     inkscape:current-layer="layer1"
     showgrid="false"
     inkscape:window-width="2048"
     inkscape:window-height="1029"
     inkscape:window-x="0"
     inkscape:window-y="1"
     inkscape:window-maximized="1"
     inkscape:snap-to-guides="false"
     inkscape:snap-grids="false"
     inkscape:snap-others="false"
     inkscape:snap-nodes="false"
     inkscape:snap-global="false"
     fit-margin-top="0"
     fit-margin-left="0"
     fit-margin-right="0"
     fit-margin-bottom="0" />
  <metadata
     id="metadata7">
    <rdf:RDF>
      <cc:Work
         rdf:about="">
        <dc:format>image/svg+xml</dc:format>
        <dc:type
           rdf:resource="http://purl.org/dc/dcmitype/StillImage" />
        <dc:title></dc:title>
      </cc:Work>
    </rdf:RDF>
  </metadata>
  <g
     inkscape:label="Layer 1"
     inkscape:groupmode="layer"
     id="layer1"
     transform="translate(-4.3832845,-217.17984)">
    <path
       sodipodi:nodetypes="scccsccsccsssssssssscsscss"
       inkscape:connector-curvature="0"
       id="path4161"
       d="m 146.242,861.70228 c -1.48463,-2.27253 -3.45795,-4.19608 -4.97197,-5.30476 C 116.8916,831.7818 79.903913,795.02666 59.196674,756.29078 40.59599,729.70425 24.597448,701.08787 17.196559,673.14792 14.423198,665.6225 6.9186328,625.92175 5.1757128,608.07649 3.691176,592.87674 4.528541,579.46218 5.7578014,558.00506 14.470994,430.45076 71.169957,331.8682 167.5,277.63299 c 3.8655,-2.60665 8.95185,-6.16075 11.33745,-7.84726 10.60461,-7.49699 27.97774,-16.75225 43.32312,-23.07971 7.29611,-4.60968 16.46875,-5.32775 23.96435,-9.06811 5.69901,-2.91051 38.37533,-11.27083 52.64346,-13.46897 22.8438,-3.51929 30.06306,-4.19414 51.23162,-4.7891 22.90064,-0.64364 30.42933,-0.35877 50,1.89189 30.43603,3.5002 57.9652,10.01973 87.5,20.72196 12.98069,4.70368 14.63425,5.41718 33.32497,14.37953 22.86418,10.96357 48.71003,27.03888 66.07565,41.097 4.17966,3.38359 10.04125,8.13672 13.02575,10.56251 9.9328,8.07335 32.25534,31.50343 44.04177,46.22692 9.5348,11.91077 20.93857,28.15616 27.71517,39.48201 15.14379,25.31006 15.02961,25.06163 24.80905,53.97769 6.76409,20.00021 11.26223,39.85361 14.46801,63.85743 11.42041,51.59667 -2.80983,119.88626 -9.37975,152.1401 -8.76725,43.04125 -40.32708,96.76512 -67.54081,128.3476 -16.59502,19.25908 -43.75409,50.85027 -91.1667,92.81114 -50.54551,30.71429 -275.62597,25.09802 -359.80004,1.48721 -17.0442,-4.78089 -33.75914,-19.95834 -36.83107,-24.66055 z"
       style="fill:url(#radialGradient4234);fill-opacity:1" />
    <path
       sodipodi:nodetypes="csssssssssssssc"
       inkscape:connector-curvature="0"
       id="path4159"
       d="M 370.5,816.60001 C 318.41643,811.34145 280.20404,800.53699 238,779.13597 164.83882,742.03706 108.73391,681.59044 80.64528,609.60427 48.30087,526.71133 58.26285,434.98147 107.56589,361.71935 c 9.24636,-13.73967 16.79513,-22.86863 30.90127,-37.36987 43.60557,-44.82691 101.769,-74.83471 165.93429,-85.60917 24.05253,-4.03884 35.52729,-4.78884 64.85245,-4.23883 28.98388,0.54362 43.54293,2.12389 66.7461,7.24477 91.17805,20.12279 168.9979,74.09174 216.97277,150.4731 18.739,29.83458 35.6484,74.47234 39.96342,105.49622 3.63786,26.15522 4.19817,52.80632 1.57516,74.92194 -6.91274,58.28395 -34.1176,114.0253 -76.17887,156.08657 -46.2442,46.2442 -106.33001,75.4831 -175.83248,85.56345 -11.80048,1.71149 -20.65249,2.23321 -41.5,2.44594 -14.575,0.14872 -28.3,0.0887 -30.5,-0.13346 z"
       style="fill:#ffffff;fill-opacity:1" />
    <path
       sodipodi:nodetypes="ssssssssscsssssssssssssscsssscscscssccssssssssssssssscssssssssssssssssssssssssssssssss"
       inkscape:connector-curvature="0"
       id="path4157"
       d="m 365.16905,887.11221 c -1.05316,-5.15985 -2.07156,-12.92588 -0.94916,-14.04828 0.61616,-0.61616 7.91709,-0.55381 8.77906,-0.22304 1.68625,0.64708 2.03869,6.70752 0.89473,13.62846 -0.72441,4.3827 -7.91344,4.61721 -8.72463,0.64286 z m 28.67996,2.50508 c 0,0.27145 -3.05058,-12.65092 -1.44762,-14.42217 2.07111,-2.28854 8.46512,-2.36769 9.31231,-0.15994 0.6906,1.79968 0.0684,12.68719 -2.57515,14.57703 -3.09307,2.21119 -5.28954,0.005 -5.28954,0.005 z m 31.79716,-4.64794 c -0.31703,-1.7875 -0.8737,-5.60212 -1.23706,-8.47693 -0.62807,-4.96912 -0.53298,-5.27548 1.9277,-6.21103 2.60943,-0.9921 8.66319,0.31001 8.66319,1.86338 0,0.40137 -1.16982,3.61985 -2.59961,7.15217 -3.94595,9.74859 -5.76094,11.27288 -6.75422,5.67241 z m -125.68138,-1.39131 c -0.5876,-1.57228 -1.99071,-4.78257 -3.11803,-7.13399 -2.45231,-5.11515 -1.40565,-7.2247 3.58456,-7.2247 4.46976,0 7.12126,2.08928 5.81142,4.57917 -0.55576,1.05645 0.81994,3.80742 0.43808,6.11326 -0.38187,2.30584 -1.32667,4.36011 -2.09956,5.00155 -1.13212,0.93958 -3.75576,0.96777 -4.61647,-1.33529 z m 153.4767,0.26422 c -0.32814,-1.3074 -0.67421,-4.55706 -0.76905,-7.22147 -0.16344,-4.59143 0.0134,-4.94538 3.38755,-6.779 4.05105,-2.2015 8.94001,-1.63616 8.94001,1.03378 0,2.013 -8.68998,15.34378 -10.0022,15.34378 -0.52783,0 -1.22817,-1.06969 -1.55631,-2.37709 z M 264.75,878.10741 c -2.6125,-3.89973 -4.75,-7.50603 -4.75,-8.01399 0,-3.14996 10.28222,-2.64879 13.00667,0.63396 1.93801,2.33517 -0.41055,14.51705 -2.79185,14.48121 -0.39315,-0.006 -2.85232,-3.20145 -5.46482,-7.10118 z m 66.3462,4.26342 -1.81981,-9.37239 c -0.0135,-3.70163 10.38751,-2.67518 9.49709,-0.52066 0,0 2.04464,6.76033 1.71239,9.51713 -1.79614,14.90314 -9.28277,0.92647 -9.38967,0.37592 z m -92.71599,-5.19153 c -6.42725,-7.69501 -7.34337,-9.65312 -4.94659,-10.57285 4.56511,-1.7518 14.57543,4.05045 14.5608,8.43982 -0.009,2.793 -2.03412,9.17308 -2.91121,9.17308 -0.45253,0 -3.46888,-3.16802 -6.703,-7.04005 z m 241.17512,6.12957 c -0.30949,-0.50076 -0.63747,-2.81841 -0.72884,-5.15031 -0.14556,-3.71464 0.29441,-4.6619 3.55174,-7.64703 3.06181,-2.80593 4.37115,-3.35292 7.41983,-3.09968 2.03607,0.16912 3.70194,0.84337 3.70194,1.49833 0,1.42075 -11.40455,15.30917 -12.5712,15.30917 -0.44592,0 -1.06398,-0.40972 -1.37347,-0.91048 z M 214.2312,874.9521 C 210.25404,870.94822 207,866.8954 207,865.94583 c 0,-2.92994 5.32521,-2.12502 10.07935,1.52352 6.26334,4.80677 8.06812,7.6467 7.10801,11.18484 -0.43802,1.61416 -1.23033,3.07948 -1.76068,3.25627 -0.53036,0.17678 -4.21832,-2.95448 -8.19548,-6.95836 z m 288.26397,4.24526 c -0.54839,-2.49681 -0.10121,-3.66987 2.57318,-6.75 5.50391,-6.33895 12.4094,-9.75256 13.57644,-6.71128 0.45073,1.17457 -1.50179,3.80572 -6.7299,9.06895 -4.05066,4.07788 -7.67784,7.41432 -8.06041,7.41432 -0.38256,0 -0.99425,-1.3599 -1.35931,-3.02199 z m -309.77623,-7.24139 c -8.11263,-7.54499 -9.32114,-9.73662 -5.36898,-9.73662 4.49961,0 17.13923,11.22134 16.48224,14.63278 -0.67385,3.49905 -3.35793,2.31653 -11.11326,-4.89616 z m 330.63873,5.75307 c -0.44248,-1.15307 1.12014,-3.42509 5.17129,-7.51895 6.20015,-6.26553 10.87955,-8.96223 12.58762,-7.25416 0.9698,0.9698 -7.5951,9.5803 -14.37071,14.4472 -2.49746,1.79393 -2.81321,1.8243 -3.3882,0.32591 z M 175.72494,869.119 c -7.68054,-6.25042 -10.57957,-9.89965 -7.86449,-9.89965 2.57357,0 19.13955,13.5809 19.13955,15.69073 0,2.57938 -2.6823,1.20171 -11.27506,-5.79108 z M 541,875.1457 c 0,-1.17207 9.70261,-10.37088 13.89104,-13.16976 2.80525,-1.87458 5.4852,-2.33136 4.94229,-0.84239 -0.32213,0.88348 -17.69962,15.0858 -18.45849,15.0858 -0.20616,0 -0.37484,-0.48314 -0.37484,-1.07365 z m -378.33479,-9.01899 c -4.8473,-3.90095 -8.5621,-7.3438 -8.25512,-7.65078 0.61174,-0.61175 14.08806,9.42641 17.05218,12.70172 3.72953,4.1211 -0.21212,1.85795 -8.79706,-5.05094 z"
       style="fill:url(#linearGradient4248);fill-opacity:1" />
    <path
       sodipodi:nodetypes="ssscsssssssss"
       inkscape:connector-curvature="0"
       id="path4155"
       d="M 373.5,815.58569 C 310.16135,810.33867 253.88546,791.16456 203.5,757.6639 140.45218,715.74421 95.24106,656.19959 74.54954,587.83166 66.7472,562.05152 63.67122,540.94808 63.67426,513.21935 c 0.002,-22.31869 1.07478,-35.12757 4.43704,-53 C 80.42529,394.7631 119.55241,334.3588 176,293.66119 c 73.18276,-52.76334 169.84085,-70.93961 263.5,-49.55039 103.32612,23.5969 190.26291,92.77955 230.92839,183.76846 24.12031,53.96914 30.65294,113.84765 18.47466,169.34009 -6.52757,29.744 -16.59561,54.4154 -34.16923,83.73058 -13.43676,22.41435 -38.22932,50.33042 -60.23272,67.82118 -43.62628,34.67904 -96.01257,56.56693 -154.5011,64.5532 -14.06482,1.92047 -54.1574,3.28384 -66.5,2.26138 z"
       style="fill:none" />
    <path
       sodipodi:nodetypes="ssssssssssss"
       inkscape:connector-curvature="0"
       id="path4153"
       d="M 376.05533,815.1355 C 291.03908,809.73434 210.1902,773.55541 151.43776,714.62176 103.05141,666.08617 71.57332,602.19289 65.02284,539.21935 c -2.20356,-21.18415 -0.9137,-53.63202 3.02114,-76 11.71611,-66.60138 52.04316,-129.32428 109.06306,-169.63185 46.2562,-32.69868 95.86146,-50.61626 156.29865,-56.4556 18.02698,-1.74173 57.51777,-0.6891 76.07294,2.02774 110.79505,16.22256 203.7476,79.71493 252.62666,172.55971 34.95139,66.38945 41.94533,142.58794 19.36681,211 -12.64653,38.31851 -33.62796,73.10832 -61.37882,101.7737 -53.0063,54.75311 -123.34773,85.67183 -206.39975,90.72345 -17.73711,1.07886 -19.43933,1.07519 -37.6382,-0.081 z"
       style="fill:none" />
    <path
       sodipodi:nodetypes="zzsscssscczzssssscssssss"
       inkscape:connector-curvature="0"
       id="path4151-5"
       d="M 279.63717,819.38091 C 247.85697,810.61692 150.48947,757.87486 120.7642,715.68461 91.038934,673.49437 55.296285,609.41529 46.899169,566.94018 37.152095,517.63658 43.089513,457.17625 46.733166,441.27313 c 9.811861,-42.82494 14.068367,-50.94418 21.316816,-69.3519 28.79341,-49.1424 44.304218,-55.79135 81.618858,-87.57109 48.61124,-41.40072 108.05486,-59.91169 176.17957,-66.49378 20.32002,-1.96327 68.40199,0.67468 89.32059,3.71424 125.84649,18.28603 227.22843,98.42594 274.76038,203.0804 47.98245,130.83104 35.72668,211.34574 -53.78443,311.84363 -64.03027,79.89899 -182.12339,93.53893 -217.65344,95.12043 -35.53006,1.5815 -107.07414,-3.47016 -138.85434,-12.23415 z M 458.1104,806.4677 c 30.6731,-2.13412 90.39875,-34.69512 117.80943,-47.68314 16.35127,-7.74773 61.38054,-58.14575 61.38054,-58.14575 -2.21079,-4.44646 91.2034,-84.43729 38.6769,-261.67295 C 666.03161,405.40707 585.9795,316.52497 573.77407,307.97958 501.2436,257.19877 406.28996,228.46414 316.4459,239.09957 272.7706,246.96796 175.94915,284.26824 147.78128,317.00594 6.7288863,480.94206 96.380548,631.89559 92.806481,631.89559 c -2.769424,0 25.421039,49.09563 43.179719,66.68432 12.20779,12.09095 86.45877,73.00399 101.82108,78.79862 18.51645,6.98436 90.13993,28.9746 101.15587,31.32138 28.22526,6.01294 90.73447,-0.25533 119.14725,-2.23221 z"
       style="fill:#eceded;fill-opacity:1" />
    <path
       sodipodi:nodetypes="scsssscsssssssssssssssssssssssssssssssccsccssssssssscsssss"
       inkscape:connector-curvature="0"
       id="path4151"
       d="m 298,903.17247 c -50.63569,-3.82098 -102.15283,-9.61264 -107.11311,-15.58941 -1.41958,-1.71048 -2.641,-1.79893 15.33042,1.11007 35.4431,5.73709 78.14062,8.4751 143.28269,9.18809 57.95214,0.63429 89.38999,-0.25704 130.89075,-3.71101 30.84017,-2.56673 39.18038,-3.57893 49.50908,-6.0086 4.61991,-1.08676 8.57358,-1.80218 8.78594,-1.58982 0.21236,0.21235 -1.99846,1.32425 -4.89983,2.50329 -20.40674,8.29275 -60.59033,14.31815 -109.78594,15.43251 -17.97024,0.40705 -45.59609,1.18011 -71.70263,0.93224 C 331.51814,905.24254 311.79397,904.21337 298,903.17247 Z M 376.05533,815.1355 C 288.17337,815.46575 209.54858,774.83864 151.43776,714.62176 103.84681,665.30601 71.57332,602.19289 65.02284,539.21935 c -2.20356,-21.18415 -0.9137,-53.63202 3.02114,-76 11.71611,-66.60138 52.04316,-129.32428 109.06306,-169.63185 46.2562,-32.69868 95.86146,-50.61626 156.29865,-56.4556 18.02698,-1.74173 57.51777,-0.6891 76.07294,2.02774 110.79505,16.22256 203.7476,79.71493 252.62666,172.55971 34.95139,66.38945 41.94533,142.58794 19.36681,211 -12.64653,38.31851 -33.62796,73.10832 -61.37882,101.7737 -53.0063,54.75311 -123.34773,85.67183 -206.39975,90.72345 -17.73711,1.07886 -19.40277,-0.14953 -37.6382,-0.081 z M 414,725.26753 c 27.21176,-1.8933 51.52061,-8.22215 75.83809,-19.74455 14.50605,-6.87344 30.06721,-15.96235 39.21934,-22.90712 C 541.79222,672.95254 567,646.70837 567,643.11335 c 0,-1.08758 3.32759,-6.07361 6.60309,-9.894 2.45929,-2.8684 2.4997,-2.94276 12.02826,-22.13567 3.92224,-7.90038 7.43803,-15.48933 7.81285,-16.86433 0.37483,-1.375 1.06481,-3.4 1.53329,-4.5 1.07714,-2.52911 2.92365,-9.66321 4.01184,-15.5 0.46143,-2.475 1.27315,-5.625 1.80382,-7 4.25293,-11.01955 4.1389,-51.83043 -0.20389,-72.96953 -5.2074,-25.34773 -17.20003,-52.80636 -31.01205,-71.00597 -2.30595,-3.03848 -5.36539,-7.5495 -6.79876,-10.0245 -3.2719,-5.64961 -17.56777,-21.69994 -29.87815,-33.54493 C 522.34815,369.52118 507.23539,357.89745 496,351.29314 c -4.125,-2.42473 -9.62785,-5.67317 -12.22855,-7.21876 C 446.43947,323.98806 399.46047,314.74214 365,314.72514 c -23.3996,0.005 -28.01951,0.27953 -39.48767,2.34559 -38.7468,6.98049 -73.96069,23.18114 -103.4794,47.60717 -29.64964,26.7718 -51.52888,62.7892 -60.42999,95.54145 -3.49164,12.88686 -4.71488,20.35941 -5.6698,34.63576 -1.03492,15.47245 -0.039,39.40027 1.96147,47.12546 0.53249,2.05633 1.48439,6.43878 2.11533,9.73878 0.63094,3.3 1.57014,7.35 2.08711,9 4.96833,15.85731 6.22005,19.37227 7.93201,22.27382 1.08402,1.83728 1.97094,3.92698 1.97094,4.64379 0,0.71681 1.125,2.96108 2.5,4.98725 1.375,2.02618 2.5,4.18692 2.5,4.80166 0,3.14755 18.51247,32.16479 24.25,38.01049 0.9625,0.98064 1.75129,2.12049 1.75286,2.53299 0.01,2.58765 36.70311,36.94372 42.84802,40.11881 1.45701,0.75284 3.77412,2.37163 5.14912,3.5973 6.20118,5.52773 34.5909,20.83489 48.21149,25.99467 16.41816,6.21956 28.51565,10.05398 38.28851,12.13594 25.04024,5.33441 51.29348,7.20525 76.5,5.45146 z"
       style="fill:url(#linearGradient4273);fill-opacity:1" />
  </g>
</svg>
